<svg width="332" height="84" viewBox="0 0 332 84" fill="none" xmlns="http://www.w3.org/2000/svg">
<g filter="url(#filter0_f_2_159)">
<path d="M42.1687 30.2535L42.2646 30.1619L42.3558 30.0657L43.7671 28.576H202.124L203.716 30.1678L205.638 32.0897V52.186L203.722 54.1933L202.207 55.6283H43.6832L42.2564 54.2015L40.1694 52.1145V32.1619L42.1687 30.2535Z" stroke="url(#paint0_linear_2_159)" stroke-width="10.5458"/>
</g>
<g filter="url(#filter1_b_2_159)">
<mask id="path-2-inside-1_2_159" fill="white">
<path fill-rule="evenodd" clip-rule="evenodd" d="M6.82767 20.1463L0.966125 25.7792V57.9668L6.82767 63.8679L11.6235 68.6961H40.3983V65.0969H120.405L128.175 67.8242H205.243L212.494 65.0969H289.14L289.521 64.8505V68.6962H318.296L323.092 63.8681L328.953 57.967V25.7793L323.092 20.1465L318.296 15.0501H289.521V19.3681L289.14 19.108H218.738L207.434 15.0501H126.697L114.586 19.108H40.3983V15.0499H11.6235L6.82767 20.1463Z"/>
</mask>
<path fill-rule="evenodd" clip-rule="evenodd" d="M6.82767 20.1463L0.966125 25.7792V57.9668L6.82767 63.8679L11.6235 68.6961H40.3983V65.0969H120.405L128.175 67.8242H205.243L212.494 65.0969H289.14L289.521 64.8505V68.6962H318.296L323.092 63.8681L328.953 57.967V25.7793L323.092 20.1465L318.296 15.0501H289.521V19.3681L289.14 19.108H218.738L207.434 15.0501H126.697L114.586 19.108H40.3983V15.0499H11.6235L6.82767 20.1463Z" fill="url(#paint1_linear_2_159)" fill-opacity="0.1"/>
<path d="M0.966125 25.7792L0.648421 25.4486L0.507612 25.5839V25.7792H0.966125ZM6.82767 20.1463L7.14537 20.4769L7.15369 20.4689L7.16158 20.4605L6.82767 20.1463ZM0.966125 57.9668H0.507612V58.1559L0.640819 58.29L0.966125 57.9668ZM6.82767 63.8679L7.15298 63.5448L7.15298 63.5448L6.82767 63.8679ZM11.6235 68.6961L11.2982 69.0192L11.4327 69.1546H11.6235V68.6961ZM40.3983 68.6961V69.1546H40.8568V68.6961H40.3983ZM40.3983 65.0969V64.6384H39.9398V65.0969H40.3983ZM120.405 65.0969L120.557 64.6643L120.484 64.6384H120.405V65.0969ZM128.175 67.8242L128.023 68.2568L128.097 68.2827H128.175V67.8242ZM205.243 67.8242V68.2827H205.326L205.404 68.2533L205.243 67.8242ZM212.494 65.0969V64.6384H212.411L212.333 64.6678L212.494 65.0969ZM289.14 65.0969V65.5555H289.276L289.39 65.4818L289.14 65.0969ZM289.521 64.8505H289.98V64.0075L289.272 64.4656L289.521 64.8505ZM289.521 68.6962H289.063V69.1547H289.521V68.6962ZM318.296 68.6962V69.1547H318.487L318.621 69.0193L318.296 68.6962ZM323.092 63.8681L322.766 63.5449L322.766 63.5449L323.092 63.8681ZM328.953 57.967L329.279 58.2901L329.412 58.156V57.967H328.953ZM328.953 25.7793H329.412V25.584L329.271 25.4487L328.953 25.7793ZM323.092 20.1465L322.758 20.4607L322.766 20.4691L322.774 20.4771L323.092 20.1465ZM318.296 15.0501L318.63 14.7358L318.494 14.5916H318.296V15.0501ZM289.521 15.0501V14.5916H289.063V15.0501H289.521ZM289.521 19.3681L289.262 19.7467L289.98 20.2368V19.3681H289.521ZM289.14 19.108L289.399 18.7294L289.282 18.6495H289.14V19.108ZM218.738 19.108L218.583 19.5395L218.658 19.5665H218.738V19.108ZM207.434 15.0501L207.589 14.6186L207.514 14.5916H207.434V15.0501ZM126.697 15.0501V14.5916H126.622L126.551 14.6154L126.697 15.0501ZM114.586 19.108V19.5665H114.661L114.732 19.5427L114.586 19.108ZM40.3983 19.108H39.9398V19.5665H40.3983V19.108ZM40.3983 15.0499H40.8568V14.5914H40.3983V15.0499ZM11.6235 15.0499V14.5914H11.4253L11.2896 14.7357L11.6235 15.0499ZM1.28383 26.1098L7.14537 20.4769L6.50996 19.8157L0.648421 25.4486L1.28383 26.1098ZM1.42464 57.9668V25.7792H0.507612V57.9668H1.42464ZM7.15298 63.5448L1.29143 57.6437L0.640819 58.29L6.50236 64.191L7.15298 63.5448ZM11.9488 68.3729L7.15298 63.5448L6.50236 64.191L11.2982 69.0192L11.9488 68.3729ZM40.3983 68.2375H11.6235V69.1546H40.3983V68.2375ZM39.9398 65.0969V68.6961H40.8568V65.0969H39.9398ZM120.405 64.6384H40.3983V65.5555H120.405V64.6384ZM128.327 67.3915L120.557 64.6643L120.254 65.5296L128.023 68.2568L128.327 67.3915ZM205.243 67.3656H128.175V68.2827H205.243V67.3656ZM212.333 64.6678L205.081 67.395L205.404 68.2533L212.655 65.5261L212.333 64.6678ZM289.14 64.6384H212.494V65.5555H289.14V64.6384ZM289.272 64.4656L288.891 64.712L289.39 65.4818L289.77 65.2354L289.272 64.4656ZM289.98 68.6962V64.8505H289.063V68.6962H289.98ZM318.296 68.2377H289.521V69.1547H318.296V68.2377ZM322.766 63.5449L317.971 68.3731L318.621 69.0193L323.417 64.1912L322.766 63.5449ZM328.628 57.6439L322.766 63.5449L323.417 64.1912L329.279 58.2901L328.628 57.6439ZM328.495 25.7793V57.967H329.412V25.7793H328.495ZM322.774 20.4771L328.636 26.1099L329.271 25.4487L323.409 19.8158L322.774 20.4771ZM317.962 15.3643L322.758 20.4607L323.426 19.8322L318.63 14.7358L317.962 15.3643ZM289.521 15.5086H318.296V14.5916H289.521V15.5086ZM289.98 19.3681V15.0501H289.063V19.3681H289.98ZM288.882 19.4865L289.262 19.7467L289.78 18.9895L289.399 18.7294L288.882 19.4865ZM218.738 19.5665H289.14V18.6495H218.738V19.5665ZM218.893 18.6764L207.589 14.6186L207.28 15.4817L218.583 19.5395L218.893 18.6764ZM207.434 14.5916H126.697V15.5087H207.434V14.5916ZM126.551 14.6154L114.441 18.6732L114.732 19.5427L126.843 15.4849L126.551 14.6154ZM40.3983 19.5665H114.586V18.6495H40.3983V19.5665ZM39.9398 15.0499V19.108H40.8568V15.0499H39.9398ZM11.6235 15.5084H40.3983V14.5914H11.6235V15.5084ZM7.16158 20.4605L11.9574 15.3641L11.2896 14.7357L6.49375 19.8321L7.16158 20.4605Z" fill="white" fill-opacity="0.3" mask="url(#path-2-inside-1_2_159)"/>
</g>
<g filter="url(#filter2_i_2_159)">
<path d="M14.4958 26.325L18.9254 23.1658H311.017L315.692 26.325L320.86 29.8167V54.3881L315.692 58.0461L311.017 61.039H18.9254L14.4958 58.0461L9.082 54.3881V29.8167L14.4958 26.325Z" fill="white" fill-opacity="0.01"/>
</g>
<path d="M14.8686 26.9029L14.8821 26.8942L14.8952 26.8849L19.1455 23.8535H310.806L315.307 26.8948L320.172 30.182V54.0323L315.308 57.4756L310.815 60.3513H19.1359L14.8809 57.4762L9.76977 54.0228V30.1915L14.8686 26.9029Z" stroke="url(#paint2_linear_2_159)" stroke-opacity="0.7" stroke-width="1.37554"/>
<g filter="url(#filter3_i_2_159)">
<path d="M14.6236 26.7269L14.6326 26.7211L14.6413 26.7149L18.9513 23.6409H310.756L315.315 26.7215L320.281 30.0768V54.1675L315.315 57.6824L310.762 60.5971H18.945L14.6318 57.6828L9.41973 54.1612V30.0832L14.6236 26.7269Z" stroke="white" stroke-width="0.917028"/>
</g>
<g filter="url(#filter4_d_2_159)">
<rect x="13.3471" y="17.3426" width="25.2183" height="1.83406" rx="0.917028" fill="#E641FF"/>
</g>
<g filter="url(#filter5_d_2_159)">
<rect x="291.355" y="17.3426" width="25.2183" height="1.83406" rx="0.917028" fill="#52C5FF"/>
</g>
<g filter="url(#filter6_d_2_159)">
<rect x="327.119" y="29.2637" width="25.2183" height="1.83406" rx="0.917028" transform="rotate(90 327.119 29.2637)" fill="#52C5FF"/>
</g>
<g filter="url(#filter7_d_2_159)">
<rect x="5.09277" y="29.2637" width="25.2183" height="1.83406" rx="0.917028" transform="rotate(90 5.09277 29.2637)" fill="#E641FF"/>
</g>
<g filter="url(#filter8_d_2_159)">
<rect x="13.3471" y="65.0281" width="25.2183" height="1.83406" rx="0.917028" fill="#E641FF"/>
</g>
<g filter="url(#filter9_d_2_159)">
<rect x="291.355" y="65.0281" width="25.2183" height="1.83406" rx="0.917028" fill="#52C5FF"/>
</g>
<defs>
<filter id="filter0_f_2_159" x="11.9708" y="0.377338" width="221.866" height="83.4495" filterUnits="userSpaceOnUse" color-interpolation-filters="sRGB">
<feFlood flood-opacity="0" result="BackgroundImageFix"/>
<feBlend mode="normal" in="SourceGraphic" in2="BackgroundImageFix" result="shape"/>
<feGaussianBlur stdDeviation="11.4629" result="effect1_foregroundBlur_2_159"/>
</filter>
<filter id="filter1_b_2_159" x="-17.3744" y="-3.29063" width="364.668" height="90.3274" filterUnits="userSpaceOnUse" color-interpolation-filters="sRGB">
<feFlood flood-opacity="0" result="BackgroundImageFix"/>
<feGaussianBlur in="BackgroundImageFix" stdDeviation="9.17028"/>
<feComposite in2="SourceAlpha" operator="in" result="effect1_backgroundBlur_2_159"/>
<feBlend mode="normal" in="SourceGraphic" in2="effect1_backgroundBlur_2_159" result="shape"/>
</filter>
<filter id="filter2_i_2_159" x="9.082" y="23.1658" width="311.778" height="40.6243" filterUnits="userSpaceOnUse" color-interpolation-filters="sRGB">
<feFlood flood-opacity="0" result="BackgroundImageFix"/>
<feBlend mode="normal" in="SourceGraphic" in2="BackgroundImageFix" result="shape"/>
<feColorMatrix in="SourceAlpha" type="matrix" values="0 0 0 0 0 0 0 0 0 0 0 0 0 0 0 0 0 0 127 0" result="hardAlpha"/>
<feOffset dy="2.75108"/>
<feGaussianBlur stdDeviation="8.024"/>
<feComposite in2="hardAlpha" operator="arithmetic" k2="-1" k3="1"/>
<feColorMatrix type="matrix" values="0 0 0 0 0 0 0 0 0 0.666667 0 0 0 0 1 0 0 0 0.4 0"/>
<feBlend mode="normal" in2="shape" result="effect1_innerShadow_2_159"/>
</filter>
<filter id="filter3_i_2_159" x="8.96121" y="23.1824" width="311.778" height="40.6243" filterUnits="userSpaceOnUse" color-interpolation-filters="sRGB">
<feFlood flood-opacity="0" result="BackgroundImageFix"/>
<feBlend mode="normal" in="SourceGraphic" in2="BackgroundImageFix" result="shape"/>
<feColorMatrix in="SourceAlpha" type="matrix" values="0 0 0 0 0 0 0 0 0 0 0 0 0 0 0 0 0 0 127 0" result="hardAlpha"/>
<feOffset dy="2.75108"/>
<feGaussianBlur stdDeviation="8.024"/>
<feComposite in2="hardAlpha" operator="arithmetic" k2="-1" k3="1"/>
<feColorMatrix type="matrix" values="0 0 0 0 0 0 0 0 0 0.666667 0 0 0 0 1 0 0 0 0.4 0"/>
<feBlend mode="normal" in2="shape" result="effect1_innerShadow_2_159"/>
</filter>
<filter id="filter4_d_2_159" x="10.1375" y="14.133" width="31.6375" height="8.25324" filterUnits="userSpaceOnUse" color-interpolation-filters="sRGB">
<feFlood flood-opacity="0" result="BackgroundImageFix"/>
<feColorMatrix in="SourceAlpha" type="matrix" values="0 0 0 0 0 0 0 0 0 0 0 0 0 0 0 0 0 0 127 0" result="hardAlpha"/>
<feOffset/>
<feGaussianBlur stdDeviation="1.6048"/>
<feComposite in2="hardAlpha" operator="out"/>
<feColorMatrix type="matrix" values="0 0 0 0 0.788497 0 0 0 0 0 0 0 0 0 0.909804 0 0 0 1 0"/>
<feBlend mode="normal" in2="BackgroundImageFix" result="effect1_dropShadow_2_159"/>
<feBlend mode="normal" in="SourceGraphic" in2="effect1_dropShadow_2_159" result="shape"/>
</filter>
<filter id="filter5_d_2_159" x="286.77" y="12.7575" width="34.3885" height="11.0043" filterUnits="userSpaceOnUse" color-interpolation-filters="sRGB">
<feFlood flood-opacity="0" result="BackgroundImageFix"/>
<feColorMatrix in="SourceAlpha" type="matrix" values="0 0 0 0 0 0 0 0 0 0 0 0 0 0 0 0 0 0 127 0" result="hardAlpha"/>
<feOffset/>
<feGaussianBlur stdDeviation="2.29257"/>
<feComposite in2="hardAlpha" operator="out"/>
<feColorMatrix type="matrix" values="0 0 0 0 0 0 0 0 0 0.666667 0 0 0 0 1 0 0 0 1 0"/>
<feBlend mode="normal" in2="BackgroundImageFix" result="effect1_dropShadow_2_159"/>
<feBlend mode="normal" in="SourceGraphic" in2="effect1_dropShadow_2_159" result="shape"/>
</filter>
<filter id="filter6_d_2_159" x="320.7" y="24.6786" width="11.0043" height="34.3885" filterUnits="userSpaceOnUse" color-interpolation-filters="sRGB">
<feFlood flood-opacity="0" result="BackgroundImageFix"/>
<feColorMatrix in="SourceAlpha" type="matrix" values="0 0 0 0 0 0 0 0 0 0 0 0 0 0 0 0 0 0 127 0" result="hardAlpha"/>
<feOffset/>
<feGaussianBlur stdDeviation="2.29257"/>
<feComposite in2="hardAlpha" operator="out"/>
<feColorMatrix type="matrix" values="0 0 0 0 0 0 0 0 0 0.666667 0 0 0 0 1 0 0 0 1 0"/>
<feBlend mode="normal" in2="BackgroundImageFix" result="effect1_dropShadow_2_159"/>
<feBlend mode="normal" in="SourceGraphic" in2="effect1_dropShadow_2_159" result="shape"/>
</filter>
<filter id="filter7_d_2_159" x="0.04913" y="26.0541" width="8.25324" height="31.6375" filterUnits="userSpaceOnUse" color-interpolation-filters="sRGB">
<feFlood flood-opacity="0" result="BackgroundImageFix"/>
<feColorMatrix in="SourceAlpha" type="matrix" values="0 0 0 0 0 0 0 0 0 0 0 0 0 0 0 0 0 0 127 0" result="hardAlpha"/>
<feOffset/>
<feGaussianBlur stdDeviation="1.6048"/>
<feComposite in2="hardAlpha" operator="out"/>
<feColorMatrix type="matrix" values="0 0 0 0 0.788497 0 0 0 0 0 0 0 0 0 0.909804 0 0 0 1 0"/>
<feBlend mode="normal" in2="BackgroundImageFix" result="effect1_dropShadow_2_159"/>
<feBlend mode="normal" in="SourceGraphic" in2="effect1_dropShadow_2_159" result="shape"/>
</filter>
<filter id="filter8_d_2_159" x="10.1375" y="61.8185" width="31.6375" height="8.25324" filterUnits="userSpaceOnUse" color-interpolation-filters="sRGB">
<feFlood flood-opacity="0" result="BackgroundImageFix"/>
<feColorMatrix in="SourceAlpha" type="matrix" values="0 0 0 0 0 0 0 0 0 0 0 0 0 0 0 0 0 0 127 0" result="hardAlpha"/>
<feOffset/>
<feGaussianBlur stdDeviation="1.6048"/>
<feComposite in2="hardAlpha" operator="out"/>
<feColorMatrix type="matrix" values="0 0 0 0 0.788497 0 0 0 0 0 0 0 0 0 0.909804 0 0 0 1 0"/>
<feBlend mode="normal" in2="BackgroundImageFix" result="effect1_dropShadow_2_159"/>
<feBlend mode="normal" in="SourceGraphic" in2="effect1_dropShadow_2_159" result="shape"/>
</filter>
<filter id="filter9_d_2_159" x="286.77" y="60.443" width="34.3885" height="11.0043" filterUnits="userSpaceOnUse" color-interpolation-filters="sRGB">
<feFlood flood-opacity="0" result="BackgroundImageFix"/>
<feColorMatrix in="SourceAlpha" type="matrix" values="0 0 0 0 0 0 0 0 0 0 0 0 0 0 0 0 0 0 127 0" result="hardAlpha"/>
<feOffset/>
<feGaussianBlur stdDeviation="2.29257"/>
<feComposite in2="hardAlpha" operator="out"/>
<feColorMatrix type="matrix" values="0 0 0 0 0 0 0 0 0 0.666667 0 0 0 0 1 0 0 0 1 0"/>
<feBlend mode="normal" in2="BackgroundImageFix" result="effect1_dropShadow_2_159"/>
<feBlend mode="normal" in="SourceGraphic" in2="effect1_dropShadow_2_159" result="shape"/>
</filter>
<linearGradient id="paint0_linear_2_159" x1="34.8965" y1="42.1021" x2="210.911" y2="42.1021" gradientUnits="userSpaceOnUse">
<stop stop-color="#C900E8"/>
<stop offset="1" stop-color="#00AAFF"/>
</linearGradient>
<linearGradient id="paint1_linear_2_159" x1="28.0185" y1="42.1023" x2="216.01" y2="42.1023" gradientUnits="userSpaceOnUse">
<stop stop-color="#C900E8"/>
<stop offset="1" stop-color="#00AAFF"/>
</linearGradient>
<linearGradient id="paint2_linear_2_159" x1="34.7817" y1="42.1024" x2="297.189" y2="42.1024" gradientUnits="userSpaceOnUse">
<stop stop-color="#C900E8"/>
<stop offset="1" stop-color="#00AAFF"/>
</linearGradient>
</defs>
</svg>
