<svg width="359" height="491" viewBox="0 0 359 491" fill="none" xmlns="http://www.w3.org/2000/svg">
<g filter="url(#filter0_bdi_7_50)">
<path d="M24 20H75.3489L100.018 70H174.686H259.355L284.023 20H334.698V462.981H237.023L217.605 442.981H178.186H138.768L119.349 462.981H24V20Z" fill="white" fill-opacity="0.01" shape-rendering="crispEdges"/>
<path d="M99.1207 70.4425L99.3958 71H100.018H174.686H259.355H259.976L260.252 70.4425L284.645 21H333.698V461.981H237.446L218.322 442.285L218.028 441.981H217.605H178.186H138.768H138.345L138.05 442.285L118.926 461.981H25V21H74.7272L99.1207 70.4425Z" stroke="white" stroke-opacity="0.15" stroke-width="2" shape-rendering="crispEdges"/>
</g>
<g filter="url(#filter1_b_7_50)">
<path d="M107.87 61.8555L87.1992 20.5146H273.235L252.006 61.8555H107.87Z" fill="white" fill-opacity="0.1"/>
<path d="M107.87 61.8555L87.1992 20.5146H273.235L252.006 61.8555H107.87Z" stroke="url(#paint0_linear_7_50)" stroke-width="2"/>
</g>
<g filter="url(#filter2_i_7_50)">
<path d="M25.4609 462.021V403.871L34.4756 454.674H116.758L138.079 432.688H218.362L241.015 454.674H326.629L333.958 403.871V462.021H237.351L218.362 442.015H138.079L119.09 462.021H25.4609Z" fill="#FFAF3A"/>
</g>
<defs>
<filter id="filter0_bdi_7_50" x="-40" y="-44" width="438.698" height="570.981" filterUnits="userSpaceOnUse" color-interpolation-filters="sRGB">
<feFlood flood-opacity="0" result="BackgroundImageFix"/>
<feGaussianBlur in="BackgroundImageFix" stdDeviation="32"/>
<feComposite in2="SourceAlpha" operator="in" result="effect1_backgroundBlur_7_50"/>
<feColorMatrix in="SourceAlpha" type="matrix" values="0 0 0 0 0 0 0 0 0 0 0 0 0 0 0 0 0 0 127 0" result="hardAlpha"/>
<feOffset dy="4"/>
<feGaussianBlur stdDeviation="12"/>
<feComposite in2="hardAlpha" operator="out"/>
<feColorMatrix type="matrix" values="0 0 0 0 0 0 0 0 0 0 0 0 0 0 0 0 0 0 0.45 0"/>
<feBlend mode="normal" in2="effect1_backgroundBlur_7_50" result="effect2_dropShadow_7_50"/>
<feBlend mode="normal" in="SourceGraphic" in2="effect2_dropShadow_7_50" result="shape"/>
<feColorMatrix in="SourceAlpha" type="matrix" values="0 0 0 0 0 0 0 0 0 0 0 0 0 0 0 0 0 0 127 0" result="hardAlpha"/>
<feOffset dx="25" dy="25"/>
<feGaussianBlur stdDeviation="82"/>
<feComposite in2="hardAlpha" operator="arithmetic" k2="-1" k3="1"/>
<feColorMatrix type="matrix" values="0 0 0 0 0 0 0 0 0 0.666667 0 0 0 0 1 0 0 0 0.41 0"/>
<feBlend mode="normal" in2="shape" result="effect3_innerShadow_7_50"/>
</filter>
<filter id="filter1_b_7_50" x="41.5812" y="-24.4854" width="277.292" height="131.341" filterUnits="userSpaceOnUse" color-interpolation-filters="sRGB">
<feFlood flood-opacity="0" result="BackgroundImageFix"/>
<feGaussianBlur in="BackgroundImageFix" stdDeviation="22"/>
<feComposite in2="SourceAlpha" operator="in" result="effect1_backgroundBlur_7_50"/>
<feBlend mode="normal" in="SourceGraphic" in2="effect1_backgroundBlur_7_50" result="shape"/>
</filter>
<filter id="filter2_i_7_50" x="25.4609" y="403.871" width="308.497" height="64.1494" filterUnits="userSpaceOnUse" color-interpolation-filters="sRGB">
<feFlood flood-opacity="0" result="BackgroundImageFix"/>
<feBlend mode="normal" in="SourceGraphic" in2="BackgroundImageFix" result="shape"/>
<feColorMatrix in="SourceAlpha" type="matrix" values="0 0 0 0 0 0 0 0 0 0 0 0 0 0 0 0 0 0 127 0" result="hardAlpha"/>
<feOffset dy="6"/>
<feGaussianBlur stdDeviation="3"/>
<feComposite in2="hardAlpha" operator="arithmetic" k2="-1" k3="1"/>
<feColorMatrix type="matrix" values="0 0 0 0 0 0 0 0 0 0 0 0 0 0 0 0 0 0 0.3 0"/>
<feBlend mode="normal" in2="shape" result="effect1_innerShadow_7_50"/>
</filter>
<linearGradient id="paint0_linear_7_50" x1="87.1992" y1="41.1851" x2="273.235" y2="41.1851" gradientUnits="userSpaceOnUse">
<stop stop-color="#E641FF"/>
<stop offset="1" stop-color="#52C5FF"/>
</linearGradient>
</defs>
</svg>
