<svg width="261" height="138" viewBox="0 0 261 138" fill="none" xmlns="http://www.w3.org/2000/svg">
<g filter="url(#filter0_d_1001_648)">
<path d="M108.293 40.3444C103.965 31.1381 96.5784 23.7174 87.3924 19.3465C78.2064 14.9757 67.789 13.9252 57.9153 16.374C48.0416 18.8228 39.3224 24.6194 33.2435 32.7762C27.1645 40.933 24.1019 50.9452 24.5774 61.107C25.0529 71.2687 29.0371 80.9512 35.8512 88.5047C42.6653 96.0581 51.8877 101.015 61.9469 102.531C72.0062 104.047 82.2799 102.029 91.0176 96.8191C99.7553 91.6096 106.416 83.5315 109.866 73.9613L108.136 73.3378C104.831 82.5077 98.4482 90.248 90.0759 95.2397C81.7036 100.231 71.8595 102.166 62.221 100.713C52.5824 99.2603 43.7457 94.5105 37.2166 87.2729C30.6875 80.0354 26.8698 70.7578 26.4142 61.021C25.9586 51.2843 28.8932 41.6907 34.7179 33.8751C40.5427 26.0594 48.8972 20.5052 58.358 18.1588C67.8188 15.8124 77.8004 16.8189 86.6023 21.007C95.4041 25.1951 102.482 32.3055 106.629 41.1267L108.293 40.3444Z" fill="white"/>
<circle cx="68.9715" cy="58.5838" r="43.9695" fill="white" fill-opacity="0.2"/>
<path d="M86.5098 59.0722L60.1274 74.3041V43.8403L86.5098 59.0722Z" fill="white"/>
<path d="M104.19 64.4333H102.709V50.5364H108.197C109.447 50.5364 110.408 50.8654 111.079 51.5234C111.763 52.1682 112.106 53.1289 112.106 54.4054C112.106 55.6161 111.763 56.5505 111.079 57.2085C110.408 57.8665 109.447 58.1955 108.197 58.1955H104.19V64.4333ZM104.19 51.9182V56.8137H108.197C109 56.8268 109.605 56.6229 110.013 56.2017C110.421 55.7806 110.625 55.1818 110.625 54.4054C110.625 53.5763 110.415 52.9578 109.993 52.5498C109.572 52.1287 108.974 51.9182 108.197 51.9182H104.19ZM125.561 64.5518H117.013L116.993 50.5364H118.474V63.17H125.561V64.5518ZM138.621 64.5518L137.417 60.8209H131.692L130.488 64.5518H129.007L133.607 50.5364H135.502L140.101 64.5518H138.621ZM134.554 51.8984L132.126 59.4391H136.982L134.554 51.8984ZM149.174 64.5518H147.575V58.0968L143.074 50.5364H144.851L148.365 56.715L151.878 50.5364H153.655L149.174 58.0573V64.5518ZM176.676 64.5518H175.294V64.532L175.215 64.5518L170.359 50.5364H172.077L175.985 62.2817L179.894 50.5364H181.611L176.755 64.5518L176.676 64.532V64.5518ZM194.553 64.5518H185.038V63.17H188.986V51.9182H185.038V50.5364H194.553V51.9182H190.467V63.17H194.553V64.5518ZM203.033 64.5518H199.322V50.5364H203.033C205.06 50.5364 206.534 51.0957 207.455 52.2143C208.389 53.3329 208.857 55.1095 208.857 57.5441C208.857 59.9787 208.389 61.7553 207.455 62.8739C206.534 63.9925 205.06 64.5518 203.033 64.5518ZM200.803 52.0169V63.0713H203.033C204.547 63.0713 205.646 62.6304 206.33 61.7487C207.027 60.867 207.376 59.4654 207.376 57.5441C207.376 55.6227 207.027 54.2212 206.33 53.3394C205.646 52.4577 204.547 52.0169 203.033 52.0169H200.803ZM213.29 64.5518V50.5364H221.956V51.9182H214.771V56.4386H221.621V57.9191H214.771V63.17H221.956V64.5518H213.29ZM226.311 57.4848C226.311 55.1292 226.739 53.3263 227.594 52.0761C228.463 50.8127 229.693 50.1745 231.286 50.1613C232.852 50.1481 234.049 50.7732 234.878 52.0366C235.72 53.3 236.142 55.116 236.142 57.4848C236.142 59.8536 235.72 61.6697 234.878 62.9331C234.049 64.1964 232.852 64.8215 231.286 64.8084C229.693 64.7952 228.463 64.157 227.594 62.8936C226.739 61.6302 226.311 59.8273 226.311 57.4848ZM227.792 57.4848C227.792 59.393 228.094 60.8604 228.7 61.8869C229.305 62.9133 230.167 63.4266 231.286 63.4266C232.378 63.4266 233.213 62.9133 233.793 61.8869C234.372 60.8604 234.661 59.393 234.661 57.4848C234.661 55.5635 234.372 54.0961 233.793 53.0828C233.213 52.0563 232.378 51.5431 231.286 51.5431C230.167 51.5431 229.305 52.0563 228.7 53.0828C228.094 54.0961 227.792 55.5635 227.792 57.4848ZM230.358 58.5903V56.8334H232.095V58.5903H230.358Z" fill="white"/>
</g>
<defs>
<filter id="filter0_d_1001_648" x="0.529282" y="0.614258" width="259.612" height="136.408" filterUnits="userSpaceOnUse" color-interpolation-filters="sRGB">
<feFlood flood-opacity="0" result="BackgroundImageFix"/>
<feColorMatrix in="SourceAlpha" type="matrix" values="0 0 0 0 0 0 0 0 0 0 0 0 0 0 0 0 0 0 127 0" result="hardAlpha"/>
<feOffset dy="10"/>
<feGaussianBlur stdDeviation="12"/>
<feComposite in2="hardAlpha" operator="out"/>
<feColorMatrix type="matrix" values="0 0 0 0 0 0 0 0 0 0 0 0 0 0 0 0 0 0 0.55 0"/>
<feBlend mode="normal" in2="BackgroundImageFix" result="effect1_dropShadow_1001_648"/>
<feBlend mode="normal" in="SourceGraphic" in2="effect1_dropShadow_1001_648" result="shape"/>
</filter>
</defs>
</svg>
